<?xml version="1.0" encoding="UTF-8" standalone="no"?>
<!DOCTYPE svg PUBLIC "-//W3C//DTD SVG 1.1//EN" "http://www.w3.org/Graphics/SVG/1.1/DTD/svg11.dtd">
<svg width="100%" height="100%" viewBox="0 0 512 512" version="1.1" xmlns="http://www.w3.org/2000/svg" xmlns:xlink="http://www.w3.org/1999/xlink" xml:space="preserve" xmlns:serif="http://www.serif.com/" style="fill-rule:evenodd;clip-rule:evenodd;stroke-linejoin:round;stroke-miterlimit:2;">
    <path d="M486.994,475.252C492.762,485.25 485.522,497.748 474.001,497.748L324.037,497.748C312.494,497.748 305.287,485.231 311.044,475.252L386.027,345.243C391.798,335.24 406.252,335.258 412.013,345.243L486.994,475.252ZM399.02,448.373C391.081,448.373 384.645,454.809 384.645,462.748C384.645,470.687 391.081,477.123 399.02,477.123C406.959,477.123 413.395,470.687 413.395,462.748C413.395,454.809 406.959,448.373 399.02,448.373ZM80,368L16,368C7.223,368 -0,375.223 0,384L0,448C0,456.777 7.223,464 16,464L80,464C88.777,464 96,456.777 96,448L96,384C96,375.223 88.777,368 80,368ZM284,384L284,448L176,448C167.223,448 160,440.777 160,432L160,400C160,391.223 167.223,384 176,384L284,384ZM385.372,396.702L387.69,439.202C387.799,441.191 389.443,442.748 391.435,442.748L406.605,442.748C408.597,442.748 410.241,441.191 410.35,439.202L412.668,396.702C412.785,394.554 411.075,392.748 408.924,392.748L389.116,392.748C386.965,392.748 385.255,394.554 385.372,396.702ZM80,208L16,208C7.223,208 -0,215.223 0,224L0,288C0,296.777 7.223,304 16,304L80,304C88.777,304 96,296.777 96,288L96,224C96,215.223 88.777,208 80,208ZM496,224L176,224C167.223,224 160,231.223 160,240L160,272C160,280.777 167.223,288 176,288L496,288C504.777,288 512,280.777 512,272L512,240C512,231.223 504.777,224 496,224ZM80,48L16,48C7.223,48 -0,55.223 0,64L0,128C0,136.777 7.223,144 16,144L80,144C88.777,144 96,136.777 96,128L96,64C96,55.223 88.777,48 80,48ZM496,64L176,64C167.223,64 160,71.223 160,80L160,112C160,120.777 167.223,128 176,128L496,128C504.777,128 512,120.777 512,112L512,80C512,71.223 504.777,64 496,64Z" style="fill-rule:nonzero;"/>
</svg>
