<?xml version="1.0" encoding="UTF-8" standalone="no"?>
<!DOCTYPE svg PUBLIC "-//W3C//DTD SVG 1.1//EN" "http://www.w3.org/Graphics/SVG/1.1/DTD/svg11.dtd">
<svg width="100%" height="100%" viewBox="0 0 512 512" version="1.1" xmlns="http://www.w3.org/2000/svg" xmlns:xlink="http://www.w3.org/1999/xlink" xml:space="preserve" xmlns:serif="http://www.serif.com/" style="fill-rule:evenodd;clip-rule:evenodd;stroke-linejoin:round;stroke-miterlimit:2;">
    <path d="M489,343.337L489,488.663C489,498.426 481.366,506.02 471.643,506.02L326.357,506.02C316.754,505.98 309,498.507 309,488.623L309,343.337C309,333.654 316.554,325.98 326.357,325.98L471.683,325.98C481.326,325.98 489,333.533 489,343.337ZM474.013,488.623L474.013,343.337C474.013,342.132 472.969,341.007 471.683,341.007L467.946,341.007L423.629,370.98L399,350.931L374.411,370.98L330.094,340.967L326.357,340.967C325.071,340.967 324.027,342.092 324.027,343.297L324.027,488.623C324.027,489.828 325.071,490.953 326.357,490.953L471.683,490.953C472.969,490.993 474.013,489.868 474.013,488.623ZM80,368L16,368C7.223,368 -0,375.223 0,384L0,448C0,456.777 7.223,464 16,464L80,464C88.777,464 96,456.777 96,448L96,384C96,375.223 88.777,368 80,368ZM458.183,447.721L458.183,462.708L418.246,462.708L418.246,447.721L458.183,447.721ZM284,384L284,448L176,448C167.223,448 160,440.777 160,432L160,400C160,391.223 167.223,384 176,384L284,384ZM369.348,417.748L369.348,432.734L339.817,432.734L339.817,417.748L369.348,417.748ZM458.183,417.748L458.183,432.734L379.433,432.734L379.433,417.748L458.183,417.748ZM369.348,387.855L369.348,402.721L339.817,402.721L339.817,387.855L369.348,387.855ZM458.183,387.855L458.183,402.721L379.433,402.721L379.433,387.855L458.183,387.855ZM373.808,358.565L395.504,341.007L347.893,341.007L373.808,358.565ZM424.192,358.565L450.107,341.007L402.536,341.007L424.192,358.565ZM80,208L16,208C7.223,208 -0,215.223 0,224L0,288C0,296.777 7.223,304 16,304L80,304C88.777,304 96,296.777 96,288L96,224C96,215.223 88.777,208 80,208ZM496,224L176,224C167.223,224 160,231.223 160,240L160,272C160,280.777 167.223,288 176,288L496,288C504.777,288 512,280.777 512,272L512,240C512,231.223 504.777,224 496,224ZM80,48L16,48C7.223,48 -0,55.223 0,64L0,128C0,136.777 7.223,144 16,144L80,144C88.777,144 96,136.777 96,128L96,64C96,55.223 88.777,48 80,48ZM496,64L176,64C167.223,64 160,71.223 160,80L160,112C160,120.777 167.223,128 176,128L496,128C504.777,128 512,120.777 512,112L512,80C512,71.223 504.777,64 496,64Z" style="fill-rule:nonzero;"/>
</svg>
