<?xml version="1.0" encoding="UTF-8" standalone="no"?>
<!DOCTYPE svg PUBLIC "-//W3C//DTD SVG 1.1//EN" "http://www.w3.org/Graphics/SVG/1.1/DTD/svg11.dtd">
<svg width="100%" height="100%" viewBox="0 0 512 512" version="1.1" xmlns="http://www.w3.org/2000/svg" xmlns:xlink="http://www.w3.org/1999/xlink" xml:space="preserve" xmlns:serif="http://www.serif.com/" style="fill-rule:evenodd;clip-rule:evenodd;stroke-linejoin:round;stroke-miterlimit:2;">
    <path d="M484,476L479,476L479,366L319,366L319,476L314.006,476C311.244,476 309.006,478.238 309.006,481L309.006,491C309.006,493.763 311.244,496 314.006,496L364,496C366.763,496 369,493.763 369,491L369,436C369,419.431 382.431,406 399,406C415.569,406 429,419.431 429,436L429.006,486L429.006,491C429.006,493.763 431.244,496 434.006,496L484,496C486.763,496 489,493.763 489,491L489,481C489,478.238 486.763,476 484,476ZM80,368L16,368C7.223,368 -0,375.223 0,384L0,448C0,456.777 7.223,464 16,464L80,464C88.777,464 96,456.777 96,448L96,384C96,375.223 88.777,368 80,368ZM284,384L284,448L176,448C167.223,448 160,440.777 160,432L160,400C160,391.223 167.223,384 176,384L284,384ZM484,336L314,336C311.238,336 309,338.238 309,341L309,351C309,353.763 311.238,356 314,356L484,356C486.763,356 489,353.763 489,351L489,341C489,338.238 486.763,336 484,336ZM80,208L16,208C7.223,208 -0,215.223 0,224L0,288C0,296.777 7.223,304 16,304L80,304C88.777,304 96,296.777 96,288L96,224C96,215.223 88.777,208 80,208ZM496,224L176,224C167.223,224 160,231.223 160,240L160,272C160,280.777 167.223,288 176,288L496,288C504.777,288 512,280.777 512,272L512,240C512,231.223 504.777,224 496,224ZM80,48L16,48C7.223,48 -0,55.223 0,64L0,128C0,136.777 7.223,144 16,144L80,144C88.777,144 96,136.777 96,128L96,64C96,55.223 88.777,48 80,48ZM496,64L176,64C167.223,64 160,71.223 160,80L160,112C160,120.777 167.223,128 176,128L496,128C504.777,128 512,120.777 512,112L512,80C512,71.223 504.777,64 496,64Z" style="fill-rule:nonzero;"/>
</svg>
